<svg width="436" height="435" xmlns="http://www.w3.org/2000/svg" xmlns:xlink="http://www.w3.org/1999/xlink" xml:space="preserve" overflow="hidden"><g transform="translate(-1187 -1050)"><path d="M1187 1267.5C1187 1147.38 1284.6 1050 1405 1050 1525.4 1050 1623 1147.38 1623 1267.5 1623 1387.62 1525.4 1485 1405 1485 1284.6 1485 1187 1387.62 1187 1267.5Z" fill="#0E2841" fill-rule="evenodd"/><g><g><g><path d="M1293.57 1204.73C1287.37 1206.14 1281.27 1207.91 1275.28 1210.03 1256.71 1216.69 1247.84 1223.69 1246.97 1244.06L1246.87 1247.47 1246.87 1247.47 1246.87 1247.47 1246.87 1318.14C1246.79 1321.6 1249.19 1324.63 1252.58 1325.34 1256.32 1325.99 1259.88 1323.48 1260.52 1319.74 1260.59 1319.35 1260.62 1318.96 1260.62 1318.56L1260.62 1242.94C1260.64 1239.15 1263.71 1236.07 1267.5 1236.06L1267.5 1359.23C1267.38 1364.86 1271.64 1369.63 1277.26 1370.13 1282.94 1370.43 1287.8 1366.07 1288.11 1360.38 1288.12 1360.19 1288.13 1360 1288.12 1359.81L1288.12 1297.94 1340.84 1297.94C1344.58 1297.94 1348.26 1298.96 1351.46 1300.88L1372.43 1313.5C1377.99 1316.84 1384.35 1318.6 1390.84 1318.6L1408.09 1318.6 1408.44 1318.54 1408.44 1359.23C1408.32 1364.86 1412.58 1369.63 1418.19 1370.13 1423.88 1370.43 1428.74 1366.07 1429.05 1360.38 1429.06 1360.19 1429.06 1360 1429.06 1359.81L1429.06 1314.65 1442.81 1312.07 1442.81 1359.23C1442.69 1364.86 1446.96 1369.63 1452.57 1370.13 1458.26 1370.43 1463.11 1366.07 1463.42 1360.38 1463.43 1360.19 1463.44 1360 1463.44 1359.81L1463.44 1307.99 1467.56 1305C1476.14 1298.78 1483.02 1290.53 1487.6 1280.98L1497.86 1259.55C1504.55 1245.6 1519.58 1237.65 1534.88 1239.98L1549.93 1242.27C1552.59 1242.68 1555.24 1241.5 1556.71 1239.25L1561.53 1231.94C1563.49 1229.36 1563.35 1225.75 1561.18 1223.34L1529.49 1184.21 1521.49 1175.52C1518.92 1172.73 1515.31 1171.15 1511.52 1171.15L1499.3 1171.15C1500.68 1169.05 1502.9 1167.67 1505.39 1167.36 1511.02 1166.51 1518.42 1168.23 1531.36 1168.23 1541.18 1168.57 1550.89 1166.11 1559.36 1161.16L1561.94 1159.39C1563 1158.67 1563.43 1157.32 1562.97 1156.12 1562.52 1154.93 1561.32 1154.19 1560.05 1154.33L1548.64 1155.61C1544.22 1156.11 1539.75 1156.13 1535.32 1155.68L1501.84 1152.07C1487.96 1151.13 1478.9 1162.37 1478.9 1175.01L1478.9 1176.06 1477.5 1176.69C1475.54 1177.56 1473.36 1177.81 1471.26 1177.41L1450.72 1173.5C1442.59 1171.95 1434.23 1172.1 1426.15 1173.93Z" fill="#F2AA84"/><path d="M1301.87 1359.81C1301.87 1365.51 1306.49 1370.13 1312.19 1370.13 1317.88 1370.13 1322.5 1365.51 1322.5 1359.81L1322.5 1304.81 1301.87 1304.81Z" fill="#F2AA84"/></g></g></g></g></svg>